<?xml version="1.0" encoding="UTF-8" standalone="no"?>
<!-- Generator: Adobe Illustrator 19.0.0, SVG Export Plug-In . SVG Version: 6.00 Build 0)  -->

<svg
   xmlns:dc="http://purl.org/dc/elements/1.1/"
   xmlns:cc="http://creativecommons.org/ns#"
   xmlns:rdf="http://www.w3.org/1999/02/22-rdf-syntax-ns#"
   xmlns:svg="http://www.w3.org/2000/svg"
   xmlns="http://www.w3.org/2000/svg"
   xmlns:sodipodi="http://sodipodi.sourceforge.net/DTD/sodipodi-0.dtd"
   xmlns:inkscape="http://www.inkscape.org/namespaces/inkscape"
   version="1.1"
   id="Layer_1"
   x="0px"
   y="0px"
   width="400px"
   height="400px"
   viewBox="0 0 400 400"
   style="enable-background:new 0 0 400 400;"
   xml:space="preserve"
   sodipodi:docname="aw.svg"
   inkscape:version="0.92.2 (unknown)"><metadata
     id="metadata11"><rdf:RDF><cc:Work
         rdf:about=""><dc:format>image/svg+xml</dc:format><dc:type
           rdf:resource="http://purl.org/dc/dcmitype/StillImage" /></cc:Work></rdf:RDF></metadata><defs
     id="defs9" /><sodipodi:namedview
     pagecolor="#ffffff"
     bordercolor="#666666"
     borderopacity="1"
     objecttolerance="10"
     gridtolerance="10"
     guidetolerance="10"
     inkscape:pageopacity="0"
     inkscape:pageshadow="2"
     inkscape:window-width="1920"
     inkscape:window-height="960"
     id="namedview7"
     showgrid="false"
     inkscape:zoom="3.337544"
     inkscape:cx="215.35973"
     inkscape:cy="13.838751"
     inkscape:window-x="0"
     inkscape:window-y="27"
     inkscape:window-maximized="1"
     inkscape:current-layer="Layer_1"
     showguides="false" /><style
     type="text/css"
     id="style2">
	.st0{fill:#00A99D;}
</style><path
     id="XMLID_94_"
     d="M184.2,200v0.3c0,0,0,0.1,0,0.1c-0.1,0.2-0.2,0.3-0.5,0.3c-0.2,0-0.3-0.1-0.3-0.3  C183.3,200.1,183.8,200,184.2,200z" /><path
     style="fill:#00a99d"
     d="M 0 -1.6933594 L 0 323.72852 L 0 400 L 381.11914 400 L 398.30469 400 L 401.79297 400 L 401.79297 305.01953 L 401.69531 305.01953 L 401.69531 -1.6933594 L 0 -1.6933594 z M 217.27734 80.179688 C 217.50041 80.179688 217.69554 80.208007 217.86523 80.265625 C 218.03629 80.322156 218.16808 80.406691 218.25977 80.517578 C 218.35145 80.628465 218.40136 80.754292 218.4082 80.894531 L 218.02539 80.916016 C 218.00486 80.764905 217.93546 80.651405 217.81641 80.574219 C 217.69872 80.497033 217.52424 80.458984 217.29297 80.458984 C 217.05212 80.458984 216.87648 80.49379 216.76562 80.564453 C 216.65615 80.634029 216.60156 80.717478 216.60156 80.816406 C 216.60156 80.902289 216.64075 80.973853 216.71875 81.029297 C 216.79539 81.08474 216.9954 81.142467 217.31836 81.201172 C 217.64269 81.25879 217.86394 81.308078 217.98438 81.351562 C 218.15954 81.415703 218.28957 81.496775 218.37305 81.595703 C 218.45652 81.693544 218.49805 81.807266 218.49805 81.935547 C 218.49805 82.062741 218.45106 82.183814 218.35938 82.296875 C 218.26769 82.408849 218.13727 82.49554 217.96484 82.558594 C 217.79378 82.62056 217.59962 82.652344 217.38477 82.652344 C 217.11244 82.652344 216.88396 82.619694 216.69922 82.556641 C 216.51584 82.493587 216.37101 82.399544 216.26562 82.273438 C 216.16162 82.146243 216.10704 82.001604 216.10156 81.841797 L 216.47852 81.816406 C 216.49631 81.93599 216.53724 82.034142 216.60156 82.111328 C 216.66725 82.187427 216.76745 82.249041 216.9043 82.296875 C 217.04115 82.343621 217.19613 82.367188 217.36719 82.367188 C 217.51909 82.367188 217.65321 82.350328 217.76953 82.314453 C 217.88585 82.278578 217.97124 82.229935 218.02734 82.167969 C 218.08482 82.104915 218.11328 82.034862 218.11328 81.960938 C 218.11328 81.885925 218.08599 81.821068 218.03125 81.765625 C 217.97651 81.709094 217.88762 81.663049 217.76172 81.625 C 217.68098 81.599996 217.50104 81.559995 217.22461 81.507812 C 216.94818 81.454543 216.75538 81.406121 216.64453 81.359375 C 216.50084 81.299583 216.39343 81.224776 216.32227 81.136719 C 216.25247 81.047574 216.2168 80.94769 216.2168 80.837891 C 216.2168 80.71722 216.25949 80.604364 216.3457 80.5 C 216.43192 80.394549 216.55902 80.316075 216.72461 80.261719 C 216.8902 80.207362 217.07481 80.179688 217.27734 80.179688 z M 175.36719 80.220703 L 175.79688 80.220703 L 177.0293 82.611328 L 176.57422 82.611328 L 176.22461 81.886719 L 174.96484 81.886719 L 174.63477 82.611328 L 174.21289 82.611328 L 175.36719 80.220703 z M 177.34766 80.220703 L 177.75586 80.220703 L 179.33594 82.097656 L 179.33594 80.220703 L 179.7168 80.220703 L 179.7168 82.611328 L 179.30859 82.611328 L 177.72852 80.732422 L 177.72852 82.611328 L 177.34766 82.611328 L 177.34766 80.220703 z M 180.16406 80.220703 L 182.54883 80.220703 L 182.54883 80.501953 L 181.55273 80.501953 L 181.55273 82.611328 L 181.1543 82.611328 L 181.1543 80.501953 L 180.16406 80.501953 L 180.16406 80.220703 z M 182.94727 80.220703 L 183.54688 80.220703 L 184.25781 81.912109 C 184.3235 82.069743 184.37224 82.189305 184.40234 82.267578 C 184.43656 82.180608 184.48997 82.051317 184.5625 81.882812 L 185.2832 80.220703 L 185.81836 80.220703 L 185.81836 82.611328 L 185.43359 82.611328 L 185.43359 80.609375 L 184.56055 82.611328 L 184.20117 82.611328 L 183.33008 80.576172 L 183.33008 82.611328 L 182.94727 82.611328 L 182.94727 80.220703 z M 187.29102 80.220703 L 187.71875 80.220703 L 188.95117 82.611328 L 188.49805 82.611328 L 188.14648 81.886719 L 186.88867 81.886719 L 186.55664 82.611328 L 186.13477 82.611328 L 187.29102 80.220703 z M 189.26953 80.220703 L 189.67773 80.220703 L 191.25781 82.097656 L 191.25781 80.220703 L 191.64062 80.220703 L 191.64062 82.611328 L 191.23047 82.611328 L 189.65039 80.732422 L 189.65039 82.611328 L 189.26953 82.611328 L 189.26953 80.220703 z M 193.13672 80.220703 L 193.56445 80.220703 L 194.79688 82.611328 L 194.34375 82.611328 L 193.99219 81.886719 L 192.73438 81.886719 L 192.4043 82.611328 L 191.98047 82.611328 L 193.13672 80.220703 z M 195.11523 80.220703 L 195.52344 80.220703 L 197.10352 82.097656 L 197.10352 80.220703 L 197.48633 80.220703 L 197.48633 82.611328 L 197.07812 82.611328 L 195.49609 80.732422 L 195.49609 82.611328 L 195.11523 82.611328 L 195.11523 80.220703 z M 198.1582 80.220703 L 199.19336 80.220703 C 199.42737 80.220703 199.60731 80.231077 199.73047 80.253906 C 199.9029 80.285433 200.05008 80.34316 200.17188 80.425781 C 200.33062 80.53232 200.44739 80.669607 200.52539 80.835938 C 200.60476 81.001181 200.64453 81.189267 200.64453 81.402344 C 200.64453 81.583894 200.61782 81.744526 200.56445 81.884766 C 200.51108 82.025005 200.44284 82.141969 200.35938 82.234375 C 200.2759 82.325694 200.18388 82.397903 200.08398 82.451172 C 199.98545 82.503354 199.86752 82.543134 199.72656 82.570312 C 199.58698 82.597492 199.42615 82.611328 199.24414 82.611328 L 198.1582 82.611328 L 198.1582 80.220703 z M 200.96875 80.220703 L 203.35547 80.220703 L 203.35547 80.501953 L 202.35938 80.501953 L 202.35938 82.611328 L 201.96094 82.611328 L 201.96094 80.501953 L 200.96875 80.501953 L 200.96875 80.220703 z M 203.77734 80.220703 L 204.17578 80.220703 L 204.17578 81.201172 L 205.74023 81.201172 L 205.74023 80.220703 L 206.13867 80.220703 L 206.13867 82.611328 L 205.74023 82.611328 L 205.74023 81.484375 L 204.17578 81.484375 L 204.17578 82.611328 L 203.77734 82.611328 L 203.77734 80.220703 z M 206.8125 80.220703 L 208.98828 80.220703 L 208.98828 80.501953 L 207.20898 80.501953 L 207.20898 81.234375 L 208.875 81.234375 L 208.875 81.515625 L 207.20898 81.515625 L 207.20898 82.328125 L 209.05664 82.328125 L 209.05664 82.611328 L 206.8125 82.611328 L 206.8125 80.220703 z M 209.33789 80.220703 L 209.74609 80.220703 L 210.20508 81.787109 C 210.25434 81.951265 210.29645 82.115362 210.33203 82.277344 C 210.40867 82.021869 210.45311 81.873121 210.4668 81.833984 L 211.04102 80.220703 L 211.52148 80.220703 L 211.95117 81.429688 C 212.05928 81.729733 212.13765 82.013172 212.18555 82.277344 C 212.22386 82.126233 212.27436 81.951542 212.33594 81.755859 L 212.80664 80.220703 L 213.20703 80.220703 L 212.38281 82.611328 L 211.99805 82.611328 L 211.36523 80.789062 C 211.31186 80.636865 211.27911 80.544554 211.26953 80.509766 C 211.23806 80.619565 211.20901 80.711877 211.18164 80.789062 L 210.54297 82.611328 L 210.13672 82.611328 L 209.33789 80.220703 z M 214.25 80.220703 L 214.67969 80.220703 L 215.91211 82.611328 L 215.45703 82.611328 L 215.10742 81.886719 L 213.84766 81.886719 L 213.51758 82.611328 L 213.0957 82.611328 L 214.25 80.220703 z M 219.04492 80.220703 L 220.18164 80.220703 C 220.38144 80.220703 220.5333 80.226967 220.63867 80.242188 C 220.78647 80.261756 220.90987 80.300025 221.00977 80.355469 C 221.10966 80.409825 221.18979 80.487009 221.25 80.585938 C 221.31158 80.684866 221.34375 80.793613 221.34375 80.912109 C 221.34375 81.115402 221.26051 81.286408 221.09766 81.427734 C 220.93481 81.567974 220.64239 81.638672 220.2168 81.638672 L 219.44336 81.638672 L 219.44336 82.611328 L 219.04492 82.611328 L 219.04492 80.220703 z M 175.57422 80.470703 C 175.5359 80.623988 175.47995 80.776624 175.41016 80.927734 L 175.08008 81.628906 L 176.10156 81.628906 L 175.78711 80.966797 C 175.69132 80.765679 175.62075 80.600071 175.57422 80.470703 z M 187.49609 80.470703 C 187.45778 80.623988 187.40378 80.776624 187.33398 80.927734 L 187.00195 81.628906 L 188.02344 81.628906 L 187.70898 80.966797 C 187.61319 80.765679 187.54262 80.600071 187.49609 80.470703 z M 193.3418 80.470703 C 193.30348 80.623988 193.24948 80.776624 193.17969 80.927734 L 192.84961 81.628906 L 193.86914 81.628906 L 193.55469 80.966797 C 193.45889 80.765679 193.38833 80.600071 193.3418 80.470703 z M 214.45508 80.470703 C 214.41676 80.623988 214.36276 80.776624 214.29297 80.927734 L 213.96289 81.628906 L 214.98438 81.628906 L 214.66992 80.966797 C 214.57413 80.765679 214.50161 80.600071 214.45508 80.470703 z M 198.55469 80.501953 L 198.55469 82.328125 L 199.19727 82.328125 C 199.3957 82.328125 199.55185 82.314509 199.66406 82.285156 C 199.77765 82.255804 199.86849 82.213425 199.93555 82.160156 C 200.02997 82.085145 200.10229 81.985482 200.1543 81.859375 C 200.20767 81.732181 200.23436 81.5789 200.23438 81.398438 C 200.23438 81.148398 200.18213 80.955982 200.07812 80.822266 C 199.97549 80.687462 199.85092 80.596441 199.70312 80.550781 C 199.59638 80.518167 199.42425 80.501953 199.1875 80.501953 L 198.55469 80.501953 z M 219.44336 80.501953 L 219.44336 81.357422 L 220.22266 81.357422 C 220.47993 81.357422 220.66142 81.318286 220.76953 81.242188 C 220.87764 81.166089 220.93164 81.05994 220.93164 80.921875 C 220.93164 80.821859 220.90026 80.736679 220.83594 80.666016 C 220.77299 80.594265 220.68994 80.546266 220.58594 80.523438 C 220.51888 80.509304 220.39353 80.501953 220.21289 80.501953 L 219.44336 80.501953 z "
     id="XMLID_97_" /></svg>